<svg xmlns="http://www.w3.org/2000/svg" viewBox="0 0 40 40" fill="none" aria-hidden="true">
  <!-- banknote -->
  <rect x="8.2" y="9.5" width="23.6" height="13.8" rx="1.2" stroke="#2A4943" stroke-width="1.3"/>
  <rect x="10" y="11.2" width="20" height="10.4" rx="0.6" stroke="#2A4943" stroke-width="1.05"/>
  <circle cx="20" cy="16.4" r="3.2" stroke="#2A4943" stroke-width="1.15"/>
  <circle cx="20" cy="16.4" r="1.4" stroke="#2A4943" stroke-width="1.05"/>
  <path d="M11.6 13.2h2.4M11.6 19.6h2.4M26 13.2h2.4M26 19.6h2.4" stroke="#2A4943" stroke-width="1" stroke-linecap="round"/>
  <!-- coins stack -->
  <ellipse cx="16.4" cy="28.6" rx="5.6" ry="2.2" stroke="#2A4943" stroke-width="1.2"/>
  <path d="M10.8 28.6v-2.4c0-1.2 2.5-2.2 5.6-2.2s5.6 1 5.6 2.2v2.4" stroke="#2A4943" stroke-width="1.15"/>
  <ellipse cx="16.4" cy="26.2" rx="5.6" ry="2.2" stroke="#2A4943" stroke-width="1.15"/>
  <path d="M10.8 26.2v-2.3c0-1.2 2.5-2.2 5.6-2.2s5.6 1 5.6 2.2v2.3" stroke="#2A4943" stroke-width="1.1"/>
  <ellipse cx="16.4" cy="23.9" rx="5.6" ry="2.1" stroke="#2A4943" stroke-width="1.15"/>
  <!-- edge ridges hint -->
  <path d="M11.4 27.4h.01M12.6 28.2h.01M20.2 27.4h.01M21.2 28.2h.01" stroke="#2A4943" stroke-width="1.2" stroke-linecap="round"/>
  <!-- second coin slightly right -->
  <ellipse cx="24.8" cy="30.2" rx="5.2" ry="2" stroke="#2A4943" stroke-width="1.2"/>
  <path d="M19.6 30.2v-2.1c0-1.1 2.3-2 5.2-2s5.2.9 5.2 2v2.1" stroke="#2A4943" stroke-width="1.1"/>
  <ellipse cx="24.8" cy="28.1" rx="5.2" ry="2" stroke="#2A4943" stroke-width="1.15"/>
</svg>
